<svg xmlns="http://www.w3.org/2000/svg" xmlns:xlink="http://www.w3.org/1999/xlink" version="1.1" width="75" height="75" viewBox="0 0 256 256" xml:space="preserve">
<desc>Created with Fabric.js 1.7.22</desc>
<defs>
</defs>
<g transform="translate(128 128) scale(0.72 0.72)" style="">
	<g style="stroke: none; stroke-width: 0; stroke-dasharray: none; stroke-linecap: butt; stroke-linejoin: miter; stroke-miterlimit: 10; fill: none; fill-rule: nonzero; opacity: 1;" transform="translate(-175.05 -175.05000000000004) scale(3.89 3.89)" >
	<path d="M 78.42 18.345 v 68.502 c 0 1.741 -1.412 3.153 -3.153 3.153 H 14.733 c -1.741 0 -3.153 -1.412 -3.153 -3.153 V 3.153 C 11.58 1.412 12.991 0 14.733 0 h 45.343 L 78.42 18.345 z" style="stroke: none; stroke-width: 1; stroke-dasharray: none; stroke-linecap: butt; stroke-linejoin: miter; stroke-miterlimit: 10; fill: rgb(246,246,246); fill-rule: nonzero; opacity: 1;" transform=" matrix(1 0 0 1 0 0) " stroke-linecap="round" />
	<path d="M 78.42 18.345 H 62.948 c -1.587 0 -2.873 -1.286 -2.873 -2.873 V 0 L 78.42 18.345 z" style="stroke: none; stroke-width: 1; stroke-dasharray: none; stroke-linecap: butt; stroke-linejoin: miter; stroke-miterlimit: 10; fill: rgb(233,231,231); fill-rule: nonzero; opacity: 1;" transform=" matrix(1 0 0 1 0 0) " stroke-linecap="round" />
	<path d="M 45 61.667 L 45 61.667 c -2.239 0 -4.054 -1.815 -4.054 -4.054 V 31.705 c 0 -2.239 1.815 -4.054 4.054 -4.054 h 0 c 2.239 0 4.054 1.815 4.054 4.054 v 25.908 C 49.054 59.852 47.239 61.667 45 61.667 z" style="stroke: none; stroke-width: 1; stroke-dasharray: none; stroke-linecap: butt; stroke-linejoin: miter; stroke-miterlimit: 10; fill: rgb(242,140,154); fill-rule: nonzero; opacity: 1;" transform=" matrix(1 0 0 1 0 0) " stroke-linecap="round" />
	<path d="M 45 73.985 L 45 73.985 c -2.239 0 -4.054 -1.815 -4.054 -4.054 v 0 c 0 -2.239 1.815 -4.054 4.054 -4.054 h 0 c 2.239 0 4.054 1.815 4.054 4.054 v 0 C 49.054 72.17 47.239 73.985 45 73.985 z" style="stroke: none; stroke-width: 1; stroke-dasharray: none; stroke-linecap: butt; stroke-linejoin: miter; stroke-miterlimit: 10; fill: rgb(242,140,154); fill-rule: nonzero; opacity: 1;" transform=" matrix(1 0 0 1 0 0) " stroke-linecap="round" />
</g>
</g>
</svg>